<svg xmlns="http://www.w3.org/2000/svg" xmlns:xlink="http://www.w3.org/1999/xlink" width="140" height="140" class="openButton" viewBox="0 0 100 100"><defs><style>.blackCircle{fill:url(#blackCircleGradient);}.orangeCircle{fill:#ff9600;}.handset{fill:#fff;}</style><radialGradient id="blackCircleGradient" cx="50" cy="50" r="0" gradientUnits="userSpaceOnUse"><stop offset="0.5" stop-color="#fff" stop-opacity="0"/><stop offset="0.7" stop-opacity="0.5"/><stop offset="1" stop-color="#fff" stop-opacity="0"/></radialGradient></defs><g id="blackCirle"><circle class="blackCircle" cx="50" cy="50" r="50"/></g><g id="orangeCircle" transform="rotate(0 50 50)"><circle class="orangeCircle" cx="50" cy="50" r="21.15"/><g id="handset" transform="rotate(0 50 50)"><path class="handset" d="M42,38.21s-4.61,4.29-4,8.09,9.88,14.17,13.52,15.06,5.72.54,7.29-.4A27.65,27.65,0,0,0,62,58l-5.1-4.61s-1.62,2.51-4.29,2.27-7.12-5.75-7.12-5.75a4.2,4.2,0,0,1-.65-2.42c.08-1.38,2.19-4,2.19-4Z"/></g></g></svg>