<svg xmlns="http://www.w3.org/2000/svg" xmlns:xlink="http://www.w3.org/1999/xlink" x="0px" y="0px" width="100%" height="90" style="position: relative;" viewBox="0 0 44.2 20.9">

<defs>
</defs>
<title>CNC WORLD</title>
<linearGradient id="SVGID_1_" gradientUnits="userSpaceOnUse" x1="8.009" y1="25.0328" x2="37.7619" y2="-4.7201">
	<stop offset="0" style="stop-color:#404040"></stop>
	<stop offset="0.5081" style="stop-color:#E0E0E0"></stop>
	<stop offset="1" style="stop-color:#404040"></stop>
</linearGradient>
<path d="M11.8,9.9c-1.3,0.3-2.5,0.5-3.5,0.5c-1.9,0-3.6-0.4-5.1-1.2c-1.9-1-2.9-2.3-2.9-3.9c0-1.6,1-2.9,2.9-3.9
	c1.5-0.8,3.2-1.2,5.1-1.2c1,0,2.2,0.2,3.5,0.5v3c-0.4-0.3-0.7-0.5-1.1-0.7C9.9,2.8,9.2,2.7,8.4,2.7c-1,0-1.9,0.2-2.6,0.6
	C4.8,3.8,4.3,4.5,4.3,5.3c0,0.9,0.5,1.5,1.4,2C6.5,7.8,7.4,8,8.4,8c0.8,0,1.6-0.1,2.2-0.4c0.4-0.1,0.7-0.4,1.1-0.7V9.9z M29.2,10.1
	h-3.9l-7.2-5.9v5.9h-3.9V0.5h3.9l7.2,5.9V0.5h3.9V10.1z M43.2,9.9c-1.3,0.3-2.5,0.5-3.5,0.5c-1.9,0-3.6-0.4-5.1-1.2
	c-1.9-1-2.9-2.3-2.9-3.9c0-1.6,1-2.9,2.9-3.9c1.5-0.8,3.2-1.2,5.1-1.2c1,0,2.2,0.2,3.5,0.5v3c-0.4-0.3-0.7-0.5-1.1-0.7
	c-0.7-0.3-1.4-0.4-2.2-0.4c-1,0-1.9,0.2-2.6,0.6c-0.9,0.5-1.4,1.2-1.4,2.1c0,0.9,0.5,1.5,1.4,2C37.9,7.8,38.8,8,39.8,8
	c0.8,0,1.6-0.1,2.2-0.4c0.4-0.1,0.7-0.4,1.1-0.7V9.9z M13.2,12.4l-2.6,8H8.5L7,15.8l-1.5,4.6H3.4l-2.4-8h2.2l1.4,5.2l1.7-5.2h1.7
	l1.6,5.2l1.5-5.2H13.2z M22.5,16.4c0,1.1-0.4,2-1.1,2.9c-0.8,0.9-1.9,1.4-3.3,1.4c-1.4,0-2.5-0.5-3.3-1.4c-0.7-0.8-1.1-1.8-1.1-2.9
	c0-0.5,0.1-1,0.3-1.5s0.5-1,0.8-1.3c0.8-0.9,1.9-1.4,3.3-1.4s2.5,0.5,3.3,1.4C22.1,14.4,22.5,15.3,22.5,16.4z M20.3,16.4
	c0-0.6-0.2-1.1-0.5-1.5c-0.5-0.5-1-0.8-1.7-0.8c-0.5,0-0.9,0.1-1.3,0.4s-0.7,0.6-0.8,1.1c-0.1,0.3-0.1,0.5-0.1,0.8
	c0,0.5,0.2,1,0.5,1.5c0.4,0.5,1,0.8,1.7,0.8s1.3-0.3,1.7-0.8C20.2,17.5,20.3,17,20.3,16.4z M30.5,20.4h-2.6l-2-3.1v3.1h-2.1v-8H27
	c0.9,0,1.6,0.3,2.1,0.8c0.4,0.5,0.6,1,0.6,1.6c0,0.7-0.2,1.3-0.6,1.7c-0.3,0.3-0.6,0.5-1.1,0.6L30.5,20.4z M27.5,15
	c0-0.3-0.1-0.5-0.3-0.7C27,14.1,26.7,14,26.3,14h-0.4v2h0.4c0.4,0,0.8-0.1,0.9-0.3C27.4,15.5,27.5,15.3,27.5,15z M35.9,20.4h-4.6v-8
	h2.1v6.3h2.5V20.4z M44,16.4c0,0.8-0.3,1.6-0.8,2.3s-1.1,1.2-1.9,1.5c-0.4,0.1-0.8,0.2-1.3,0.2H37v-8H40c0.8,0,1.4,0.2,2.1,0.6
	c0.6,0.4,1.1,0.9,1.4,1.6C43.9,15.2,44,15.8,44,16.4z M41.8,16.4c0-0.6-0.2-1-0.5-1.4c-0.4-0.5-1-0.8-1.8-0.8h-0.5v4.5h0.5
	c0.8,0,1.4-0.3,1.8-0.8C41.7,17.4,41.8,17,41.8,16.4z"></path>
</svg>