<svg xmlns="http://www.w3.org/2000/svg" xmlns:xlink="http://www.w3.org/1999/xlink" width="100%" viewBox="0 -41 698 474"><defs><style>.cls-1{fill:#000;}.cls-1,.cls-10{stroke:#000;stroke-miterlimit:10;}.cls-2{font-size:27pt;font-family:sans-serif;stroke:none;fill:#6f6f6f;}.cls-3{letter-spacing:0.02em;}.cls-4{letter-spacing:-0.03em;}.cls-5{letter-spacing:-0.01em;}.cls-6{letter-spacing:0em;}.cls-7{letter-spacing:0em;}.cls-8{letter-spacing:0.02em;}.cls-9{letter-spacing:-0.02em;}.cls-10{stroke-width:16px;fill:url(#Безымянный_градиент_5);}</style><radialGradient cx="341.21" cy="198.15" gradientUnits="userSpaceOnUse" id="grad" r="189.17"><stop offset="0" stop-color="#fff"/><stop stop-color="#fff" offset="0.1"/><stop stop-color="#fff" stop-opacity="0.5" offset="0.9"/><stop offset="1" stop-color="#000" stop-opacity="0.9"/></radialGradient><mask id="mask"><g data-name="Слой 4" fill="white" stroke="#363535" stroke-width="20"><circle cx="341.21" cy="198.15" r="189.17"/></g></mask><path xmlns="http://www.w3.org/2000/svg" id="logoCircleBottom" d="M763,239.15c0,104.48,84.69,189.17,189.17,189.17s189.17-84.69,189.17-189.17" transform="translate(-610.94 -41)"/><path xmlns="http://www.w3.org/2000/svg" id="logoCircleTop" d="M763,239.15C763,134.67,847.73,50,952.21,50s189.17,84.69,189.17,189.17" transform="translate(-610.94 -41)"/><mask xmlns="http://www.w3.org/2000/svg" fill="none" id="textMask" stroke-dasharray="3557" stroke-width="10" stroke="white" stroke-dashoffset="3557"><path d="M40,129.76s-13.25-6.92-24.67,3.08S15,154.67,26.17,154.09s23.67-4,31.42-9.42,11.83-9.5,10.75-14.17-10.61-3.83-17.06-.33-14.44,9.67-15.61,14.17-2.63,10.42,2,13.08a13,13,0,0,0,9.13,1.45s-7.23-1.37-11.48-.29-27,9.83-26,26.25S24,199.17,29.75,198.34s18-8.5,19.58-18.17-1.75-12.42-9.92-11.83-15.83,18.25-15.83,26.17,35.67-22.67,35.67-22.67l-1.17,13.75s-8-.92-5.42,9.08,17.25.25,19.08-3.25,18.67-23.67,21-24.83,8-2.25,8-2.25L86.25,192s-.5,6.75,2.42,6.58,10.61-5,13.67-8.92l3.05-3.92,10-9.08-1.5,9.42s12.92-2.67,16.42-4.71,10-6.46,11.25-11.37-4.08-6.08-4.08-6.08-13.92,1.33-17.08,8.83-8.42,11.42-5.83,20.75,16.83,2.42,19.75.75,12.42-12.08,12.42-12.08L162,166.26s5.25-4.5,9.25-2.33-17.42,35.94-17.42,35.94L167,179.42l22,.42,11-17.33-15.92,29.83s-.67,6.6,2.17,6.72,8.75-2.38,11.33-5.72,15.08-15.92,15.08-15.92,18.5-17,25.33-13.83,2.92,9.67,2.92,9.67,1.42-9-2.92-9-11.33,1.25-14.5,5.75-8.17,5.58-9.5,9.92-2.42,12-1.92,13.75.75,4.67,4.17,4.67,16.5-10,19.08-13.83,16.75-21.27,16.75-21.27L235.5,189.42s-2.25,8.33,1.67,8.83,17.33-8.58,21-16.33,49.58-66.25,49.58-66.25l34.42,20.75-8.56,16.23s1.89-12.56-4.27-13.81-10.92-4.25-21.08,3.58-17.83,21.17-18.17,23.83-3.83,9-2.75,18.42,4.25,14.47,10.67,14.57,7.83-1.4,22.08-16.73,17.58-24.17,17.58-24.17l4.5-3.67s14.92-20.5,23.83-17.33,9.5,18.42,9.5,18.42-6.17,22.83-10,27.33-9.25,10.17-13.17,12.33-8.08,4.92-16.42,3.42-9-11.17-7-15.83,53.25-43.08,53.25-43.08,2.75-11.17-6.33-11.92-8.33-2.25-21.92,7.5-36.75,57.42-36.75,57.42-15.17,22.67-17,23.67-9.25,8.67-12.83,10.67-22.33,8.92-24.75-5,110.24-37.65,110.24-37.65l8.26-6.85-.92,8s11.75-.33,18.25-5.58,9.92-8.08,9.42-12.25-2.92-5.33-10-2.42-13.58,9.75-15.08,13.25-3,12.17-1.67,14.33,5.42,6.58,9.42,5.17,8.25-2.67,11.17-4.83,18.83-18.67,18.83-18.67,19.33-12.75,24-11,3.25,10.32,3.25,10.32,3.58-10.49-5.33-9.91-20,13.17-21.33,15.75-5.25,11.83-2,15.92,8.67,1.58,8.67,1.58,13.25-10.33,15.17-14.75,16.58-19.44,16.58-19.44l-27.25,46.44s-12.42,14.17-16.5,15.75-10.5,6.81-16.08,5.32-8.92-2.91-7.83-8.41,11.42-10.67,11.42-10.67,25.67-9.06,29.67-9.5a52.94,52.94,0,0,0,9.67-2.5s10.92-6.83,12.17-7.83,13.42-14.5,14.83-14.92,9.83-7.42,9.83-7.42,11.17-7.25,14.42-5.58,4.08,2.42,4.42,3.58.58,10.67-2.25,14.5-10.25,15.83-19.92,15.75-6.25-7.83-6.25-7.83.08-7.33,3.67-12.17,15.17-15.71,19.75-13.42,4,.67,4,.67-4.08,4.5-4.58,8.34.08,12.16,2.08,13.91,2.31,1.83,3.7,1.17S510,177.51,510,177.51s10.33-12.5,13.92-12.83,4.5-1.75,6.33.08S495.33,232,495.33,232l29.42-43.67s12.75-14.92,14.33-16.08,10.42-10.75,14.08-7.83S550.58,178,550.58,178L543,189.17s-2.8,6.44-.42,8.25,9.08-1,10.75-3.08S568,178.76,568,178.76l14.75-11.42s9.33-5.42,12.83-3.25a8.85,8.85,0,0,1,4,9.08c-.58,2.92-4,12.42-7.08,15s-6.75,9.08-15.67,10.42-6.17-12.25-6.17-12.25l3-10,11.75-9.5s8-5,12.83-1.58-1.5,1-1.5,1-3.58,6.58-3.42,11.75,2.08,9.5,3.17,9.83,1.88,3,7.19-2.19,17.81-19.89,17.81-19.89l8-1.67s25.5-16,28.08-21.83,5.75-10.08,1.83-14.17-12.41,3.33-13.08,4S633.5,147.26,627.67,162s-9,15.33-9,15.33-8.92,13.84-5,20.08,22.17-7.08,27.67-17.17,3.33-16.67,1.75-16.58-7.09,5.8-7.42,12.33,2.08,12.17,5.08,12.92,13.58-12.67,13.58-12.67,22.17-15.5,25.33-12.25,4.17,3.08,3,9.42,3.15-9.45-4.17-9.25-18,9.17-18,9.17-5.92,8.08-6.58,12.58-1.33,11.58,3.17,12.17,16.5-8.83,19.25-12.58,20.25-24.08,20.25-24.08l-19.17,26.33s-2.67,8.42.83,10.25,18.92-10.5,21.33-15.17" transform="translate(-5.85)"/><line xmlns="http://www.w3.org/2000/svg" x1="379.84" x2="414.4" y1="154" y2="154" stroke-width="12" stroke-dasharray="35" stroke-dashoffset="35"/></mask></defs><title>Елена Фёдорова</title><g id="Слой_2" data-name="Слой 2" mask="url(#mask)" fill="url(#grad)"><image width="693" height="691" xlink:href="/images/logo.jpg" transform="translate(142.48) scale(0.57) "/><circle cx="341.21" cy="198.15" r="189.17" id="logoCircle"/></g><g id="Слой_1" data-name="Слой 1" mask="url(#textMask)"><path class="cls-1" d="M36.65,153.9a8.51,8.51,0,0,0,.15,1.82,4.53,4.53,0,0,0,1.3,1.82c.34,0,.86,0,1.56-.1s1.31-.1,1.87-.1a14.71,14.71,0,0,1,3.74.41q1.55.42,1.55,1.14,0,1.45-2.8,1.45a11.09,11.09,0,0,1-3.68-.67,9.85,9.85,0,0,0-3.06-.67,17.13,17.13,0,0,0-6.69,1.87,31.29,31.29,0,0,0-8,5.4,34.57,34.57,0,0,0-6.74,8.51A22.33,22.33,0,0,0,13,186.06q0,5.81,3.06,9a10.68,10.68,0,0,0,8,3.17,24.41,24.41,0,0,0,9.18-1.82,28.24,28.24,0,0,0,8-4.88A25.1,25.1,0,0,0,47,184.4a17.69,17.69,0,0,0,2.18-8.51,7.31,7.31,0,0,0-1.61-4.77,5.87,5.87,0,0,0-4.83-2,9.8,9.8,0,0,0-4.88,1.5,20.23,20.23,0,0,0-5,4.31,37.59,37.59,0,0,0-4.57,6.69,38.4,38.4,0,0,0-3.37,8.56q-.52,1.76-.73,2.54t-.52.78q-.42,0-.42-1a31.3,31.3,0,0,1,5-16.55,22,22,0,0,1,5.91-6.07,13.35,13.35,0,0,1,7.73-2.39,9.21,9.21,0,0,1,5.91,2.08q2.59,2.08,2.59,6.43a18.69,18.69,0,0,1-2.18,8.61,27.25,27.25,0,0,1-5.91,7.68,30.07,30.07,0,0,1-8.61,5.5,26,26,0,0,1-10.27,2.08,23.75,23.75,0,0,1-6.85-.93,15.88,15.88,0,0,1-5.4-2.75,12.68,12.68,0,0,1-3.58-4.51,14.43,14.43,0,0,1-1.3-6.33A19.24,19.24,0,0,1,9.25,175a31.4,31.4,0,0,1,7.42-8.2,41.51,41.51,0,0,1,10-5.76,49.44,49.44,0,0,1,10.58-3.06v-.21q-1.56-.52-2.75-1a4.51,4.51,0,0,1-2-1.87,16.17,16.17,0,0,1-2.75.52q-1.19.11-2.75.1a31.27,31.27,0,0,1-6.64-.68,17.05,17.05,0,0,1-5.45-2.13,11.15,11.15,0,0,1-3.73-3.79,12.32,12.32,0,0,1-1.61-5.65,11.91,11.91,0,0,1,1.61-7,16.7,16.7,0,0,1,4.77-5.08,21.63,21.63,0,0,1,6.69-3.11,27.11,27.11,0,0,1,7.26-1,27.15,27.15,0,0,1,8.61,1.45.65.65,0,0,1,.21.73q-.1.52-.73.41a36.41,36.41,0,0,0-4.15-1,24.1,24.1,0,0,0-4.15-.36,21.54,21.54,0,0,0-5.45.78,20.42,20.42,0,0,0-5.5,2.33,15.74,15.74,0,0,0-4.36,3.94,10.76,10.76,0,0,0-2.13,5.6,8.71,8.71,0,0,0,3.68,8Q20,152.14,28,152.34q.83,0,1.76-.05t1.87-.16q-.1-.72-.16-1.4c0-.45-.05-.95-.05-1.5a11.7,11.7,0,0,1,1.4-5.55,23,23,0,0,1,3.53-4.93,29.75,29.75,0,0,1,4.72-4.1,45.17,45.17,0,0,1,5-3.06,50.79,50.79,0,0,1,8.14-3.42A28.57,28.57,0,0,1,63,126.82,7.26,7.26,0,0,1,67.41,128Q69,129.2,69,132.11A8.37,8.37,0,0,1,67.15,137,26.1,26.1,0,0,1,62.28,142a56.77,56.77,0,0,1-6.64,4.51,72.32,72.32,0,0,1-7.26,3.73,65.92,65.92,0,0,1-6.74,2.59A21.4,21.4,0,0,1,36.65,153.9Zm12-20a28.16,28.16,0,0,0-4.51,3.94,36.29,36.29,0,0,0-3.73,4.72,27.86,27.86,0,0,0-2.59,4.88,11.7,11.7,0,0,0-1,4.31A53.27,53.27,0,0,0,46.92,149,58.52,58.52,0,0,0,57,144.25a33.92,33.92,0,0,0,7.73-6.17q3.06-3.37,3.06-6.69T63,128.06a17.68,17.68,0,0,0-7.57,1.87A40.48,40.48,0,0,0,48.68,133.87Z" transform="translate(-5.85 0.73)"/><path class="cls-1" d="M87.7,195.82a2.16,2.16,0,0,0,.62,1.5,1.78,1.78,0,0,0,1.87.36,18.3,18.3,0,0,0,5.76-3.06,55.42,55.42,0,0,0,5.4-4.62q2.44-2.39,4-4.25a9.15,9.15,0,0,1,1.82-1.87.46.46,0,0,1,.52.52,12,12,0,0,1-2.08,2.65q-2.08,2.34-4.93,5.08a49.48,49.48,0,0,1-6,4.93q-3.11,2.18-5.29,2.18a4.44,4.44,0,0,1-2.65-.78,5.92,5.92,0,0,1-1.76-2,10,10,0,0,1-1-2.7,13.26,13.26,0,0,1-.31-2.8,10.58,10.58,0,0,1,.31-2.59,17.46,17.46,0,0,1,.73-2.28q.72-2,1.92-4.72t2.54-5.45q1.35-2.7,2.54-4.88a25.08,25.08,0,0,1,1.92-3.11l-.31-.31a40.31,40.31,0,0,0-3.58,3.32q-2,2.07-4.1,4.46t-4.1,4.88q-2,2.49-3.58,4.46-3.63,4.67-6.28,7.52a39.49,39.49,0,0,1-4.67,4.41,12.29,12.29,0,0,1-3.68,2.08,11.39,11.39,0,0,1-3.43.52q-4.25,0-6.49-2.28t-2.23-6.85a9.26,9.26,0,0,1,1.4-5.29,4.18,4.18,0,0,1,3.58-2.08q4.15,0,4.15,3.42a3.44,3.44,0,0,1-1,2.54,3.86,3.86,0,0,1-2.85,1,3.71,3.71,0,0,1-1.87-.41,1.14,1.14,0,0,0-1.3.41,2.36,2.36,0,0,0-.47,1.45,7.11,7.11,0,0,0,.73,3.48,5.26,5.26,0,0,0,1.82,2,7.14,7.14,0,0,0,2.28.93,10.48,10.48,0,0,0,2.23.26,8.74,8.74,0,0,0,3.32-.68A14.29,14.29,0,0,0,67,194.73a46.89,46.89,0,0,0,4.56-4.56q2.54-2.85,6-7.21.21-.31,1-1.4t2-2.49q1.14-1.4,2.44-3t2.44-2.8q1-1.14,2.49-2.85a21.11,21.11,0,0,1,8.87-6.07,21,21,0,0,1,7.31-1.14l-2.49,4.15q-1.56,2.6-3.37,5.71t-3.68,6.54q-1.87,3.42-3.37,6.54t-2.49,5.66A12,12,0,0,0,87.7,195.82Z" transform="translate(-5.85 0.73)"/><path class="cls-1" d="M121.94,199.24a10.47,10.47,0,0,1-8.35-3.68q-3.17-3.68-3.16-10a12.76,12.76,0,0,1,.21-2.49,9.1,9.1,0,0,0,.21-1.35.31.31,0,0,0-.1-.21h-.1a9.64,9.64,0,0,0-1.09,1c-.38.41-.78.87-1.19,1.35s-.9,1-1,1.14a.59.59,0,0,1-.41.21c-.28,0-.42-.21-.42-.62,0-.14.17-.4.52-.78s1.21-1.36,2.59-3l2.44-2.7,2.44-2.7a50,50,0,0,1,11.21-8.87,22.74,22.74,0,0,1,11.21-3.37,6.32,6.32,0,0,1,4.67,1.76,6.05,6.05,0,0,1,1.76,4.46,7.87,7.87,0,0,1-1.45,4.51,16.79,16.79,0,0,1-3.79,3.89,33.56,33.56,0,0,1-5.24,3.22,57.34,57.34,0,0,1-5.86,2.54q-3,1.09-5.71,1.82t-4.62,1.14a19.21,19.21,0,0,0-.52,4.26,7,7,0,0,0,.42,2.33,6,6,0,0,0,1.35,2.18,7.21,7.21,0,0,0,2.33,1.61,8,8,0,0,0,3.27.62,15.32,15.32,0,0,0,7.68-2.13,38.49,38.49,0,0,0,6.64-4.72,56,56,0,0,0,4.77-4.72,12,12,0,0,1,2.08-2.13.46.46,0,0,1,.52.52,7.92,7.92,0,0,1-.88,1.25q-.88,1.14-2.44,2.8a47.72,47.72,0,0,1-3.73,3.53,38.83,38.83,0,0,1-4.77,3.48,31.3,31.3,0,0,1-5.5,2.7A16.74,16.74,0,0,1,121.94,199.24Zm14.84-34.45a10.6,10.6,0,0,0-5.76,2.13,33.63,33.63,0,0,0-6,5.24,47,47,0,0,0-5.08,6.64,21,21,0,0,0-2.85,6.23,30.87,30.87,0,0,0,7.11-1.92,33.29,33.29,0,0,0,7.26-3.89,25,25,0,0,0,5.66-5.45,10.82,10.82,0,0,0,2.28-6.59Q139.37,164.79,136.77,164.79Z" transform="translate(-5.85 0.73)"/><path class="cls-1" d="M186.68,179.11q1.76-3,4-6.74t5.29-8.61l7.37-.52q-9.24,14.32-13.75,22t-4.51,10.48a3,3,0,0,0,.68,2.33,2.56,2.56,0,0,0,1.71.57,7.06,7.06,0,0,0,2.49-.47,12.08,12.08,0,0,0,2.59-1.4,30,30,0,0,0,3-2.44q1.66-1.5,3.74-3.58Q202,188,203.7,186a9.9,9.9,0,0,1,1.87-2c.34,0,.52.14.52.41a3,3,0,0,1-.62,1q-.62.83-1.56,1.92t-2.13,2.39q-1.19,1.3-2.33,2.44a43.46,43.46,0,0,1-6.9,5.86,9.85,9.85,0,0,1-5.14,1.82,4.68,4.68,0,0,1-4.15-2,7,7,0,0,1-1.35-3.94,21.15,21.15,0,0,1,1-6.43,43.93,43.93,0,0,1,3.06-7.06H169.15q-5.6,9.34-8.61,14.11t-4.88,4.77l-5.6.52q3.63-5.5,7.26-11.05t6.49-10.12q2.85-4.56,4.67-7.83t1.82-4.31c0-.76-.21-1.24-.62-1.45a3.21,3.21,0,0,0-1.45-.31q-3,0-6.38,2.8a80.9,80.9,0,0,0-7,6.64l-8.92,9.65q-1.24,1.35-1.45,1.35c-.28,0-.41-.21-.41-.62a.64.64,0,0,1,.15-.31,3.19,3.19,0,0,1,.26-.31l11-12.25a53,53,0,0,1,7.06-6.22,11.2,11.2,0,0,1,6.54-2.28,6.56,6.56,0,0,1,4,1.24,4.26,4.26,0,0,1,1.66,3.63,11.11,11.11,0,0,1-1.35,4.72q-1.35,2.75-3.42,6.28Z" transform="translate(-5.85 0.73)"/><path class="cls-1" d="M238.56,199.24a5.25,5.25,0,0,1-4.15-1.76q-1.56-1.76-1.56-7.16a7.12,7.12,0,0,1,.1-1.3,6.31,6.31,0,0,0,.1-1.09q-1.45,1.45-3.48,3.43t-4.2,3.73a29.24,29.24,0,0,1-4.36,3,8.5,8.5,0,0,1-4,1.19,7.43,7.43,0,0,1-4.1-1,7.14,7.14,0,0,1-2.49-2.7,12.53,12.53,0,0,1-1.25-3.79,25.51,25.51,0,0,1-.36-4.31,30.61,30.61,0,0,1,.62-6l-.21-.21a9.64,9.64,0,0,0-1.19,1.19l-1.3,1.5c-.56.62-.9,1-1,1.14a.59.59,0,0,1-.41.21c-.28,0-.42-.21-.42-.62a10.59,10.59,0,0,1,1.66-2q1.66-1.82,3.74-4.2a47.62,47.62,0,0,1,5.81-6,45,45,0,0,1,6.64-4.82,34.27,34.27,0,0,1,7-3.16,23,23,0,0,1,7-1.14,4.82,4.82,0,0,1,4.2,1.82,7.58,7.58,0,0,1,1.3,4.51,15.4,15.4,0,0,1-.31,3.53l.21.21q1.76-2.8,2.7-4.57A29.52,29.52,0,0,1,246.4,166a5.73,5.73,0,0,1,1.25-1.4,3.27,3.27,0,0,1,1.61-.52l6.23-.21q-.93,1.14-2.65,3.58T249,173q-2.08,3.17-4.26,6.69t-3.94,6.74q-1.76,3.22-2.91,5.71a10.17,10.17,0,0,0-1.14,3.63,2.17,2.17,0,0,0,.62,1.5,1.78,1.78,0,0,0,1.87.36,18.28,18.28,0,0,0,5.76-3.06,55.18,55.18,0,0,0,5.4-4.62q2.44-2.39,4-4.25a9.15,9.15,0,0,1,1.82-1.87.46.46,0,0,1,.52.52,12,12,0,0,1-2.08,2.65q-2.08,2.34-4.93,5.08a49.48,49.48,0,0,1-6,4.93Q240.74,199.24,238.56,199.24ZM214,193.53a5.53,5.53,0,0,0,.73,3,2.5,2.5,0,0,0,2.28,1.14,9,9,0,0,0,4.36-1.45,31.15,31.15,0,0,0,5.08-3.79,63.51,63.51,0,0,0,5.19-5.29,47.06,47.06,0,0,0,4.57-6.12,42.65,42.65,0,0,0,3.22-6.17,14.33,14.33,0,0,0,1.24-5.4,5.71,5.71,0,0,0-.93-3.32,3.4,3.4,0,0,0-3-1.35,11,11,0,0,0-5.4,1.5,25.39,25.39,0,0,0-5.19,3.89,40.69,40.69,0,0,0-4.72,5.45,48,48,0,0,0-3.89,6.28,37.72,37.72,0,0,0-2.59,6.28A18.68,18.68,0,0,0,214,193.53Z" transform="translate(-5.85 0.73)"/><path class="cls-1" d="M370.75,128.06a15.41,15.41,0,0,0-7.94,2.23,34.76,34.76,0,0,0-7.26,5.81,74,74,0,0,0-6.69,8q-3.22,4.41-6.12,8.87l.31.21q.93-1.14,1.76-2.28.73-.93,1.4-1.76l1.09-1.35q1.55-1.76,3.37-3.74a31.8,31.8,0,0,1,3.89-3.58,23.46,23.46,0,0,1,4.26-2.65,10.3,10.3,0,0,1,4.46-1,13.93,13.93,0,0,1,6.59,1.45,13,13,0,0,1,4.57,4,17.86,17.86,0,0,1,2.7,6,29.15,29.15,0,0,1,.88,7.26A45.37,45.37,0,0,1,364.58,188a47.86,47.86,0,0,1-8.09,6.49,37,37,0,0,1-8.41,4,25.74,25.74,0,0,1-7.83,1.35q-6.75,0-9.81-3a10.3,10.3,0,0,1-3.06-7.68,12.68,12.68,0,0,1,.1-1.4c.07-.59.16-1.16.26-1.71a7.25,7.25,0,0,1,.42-1.45c.17-.42.36-.62.57-.62s.24.1.31.31a2,2,0,0,1,.1.62,1.55,1.55,0,0,1-.21,1,8.2,8.2,0,0,0-.31,2.91,13.81,13.81,0,0,0,.42,3.27,7.56,7.56,0,0,0,1.66,3.16,9,9,0,0,0,3.53,2.39,16.15,16.15,0,0,0,6,.93,13.88,13.88,0,0,0,6.64-2,34.72,34.72,0,0,0,7.21-5.5,54.91,54.91,0,0,0,6.9-8.3,67.62,67.62,0,0,0,5.86-10.43,66.73,66.73,0,0,0,4-11.78,52.72,52.72,0,0,0,1.5-12.5q0-5.29-2.8-7.68a9.64,9.64,0,0,0-6.43-2.39,9.88,9.88,0,0,0-5.19,1.76,36.22,36.22,0,0,0-5.5,4.31,57.17,57.17,0,0,0-5,5.4,58.36,58.36,0,0,0-3.68,4.93q-1.45,2.08-2.7,3.79t-2.44,3.42q-1.19,1.71-2.44,3.58t-2.7,4.15q-2.18,3.53-4.62,7.78T324,185.81q-2.49,4.41-5,8.61t-4.82,7.42q-4.26,5.81-8.92,11.21a78.2,78.2,0,0,1-9.7,9.49A49.18,49.18,0,0,1,285,229.12a26.2,26.2,0,0,1-11.1,2.49,21.28,21.28,0,0,1-10.69-2.39,7.59,7.59,0,0,1-4.15-7A5.45,5.45,0,0,1,260.2,219a3.66,3.66,0,0,1,3.16-1.5,3.72,3.72,0,0,1,3.84,3.84,4.52,4.52,0,0,1-.73,2.8,3.6,3.6,0,0,0-.73,2.28q0,1.87,2.49,2.91a15.06,15.06,0,0,0,5.81,1,19.86,19.86,0,0,0,8.25-2,41.83,41.83,0,0,0,8.87-5.66,71,71,0,0,0,8.77-8.61,90.93,90.93,0,0,0,8-10.89q1-1.56,2.65-4.15t3.27-5.45q1.66-2.85,3.22-5.5t2.49-4.41l-.31-.21q-.93,1.14-1.76,2.28-.73.93-1.45,1.82t-1,1.3q-1.56,1.76-3.37,3.74a31.38,31.38,0,0,1-3.89,3.58,23.1,23.1,0,0,1-4.25,2.65,10.28,10.28,0,0,1-4.46,1,13.94,13.94,0,0,1-6.59-1.45,13,13,0,0,1-4.56-4,17.76,17.76,0,0,1-2.7-5.91,28.76,28.76,0,0,1-.88-7.31,43.28,43.28,0,0,1,3.84-18.57,48.72,48.72,0,0,1,9.6-14,43.57,43.57,0,0,1,12.3-8.82,28.67,28.67,0,0,1,12-3.06q6.74,0,9.8,3a10.31,10.31,0,0,1,3.06,7.68,12.69,12.69,0,0,1-.1,1.4q-.1.88-.26,1.71a7.27,7.27,0,0,1-.42,1.45c-.17.41-.36.62-.57.62s-.24-.1-.31-.31a2,2,0,0,1-.1-.62,1.54,1.54,0,0,1,.21-1,8.18,8.18,0,0,0,.31-2.91,13.92,13.92,0,0,0-.42-3.27,7.57,7.57,0,0,0-1.66-3.17,9.06,9.06,0,0,0-3.53-2.39,16.14,16.14,0,0,0-6-.93,13.85,13.85,0,0,0-6.64,2,34.73,34.73,0,0,0-7.21,5.5,54.92,54.92,0,0,0-6.9,8.3,67.49,67.49,0,0,0-5.86,10.43,65.94,65.94,0,0,0-4,11.83,52.82,52.82,0,0,0-1.5,12.45q0,5.29,2.8,7.68a9.63,9.63,0,0,0,6.43,2.39,9.89,9.89,0,0,0,5.19-1.76,36.1,36.1,0,0,0,5.5-4.31,52.24,52.24,0,0,0,5-5.4q2.28-2.85,3.74-4.93,1.66-2.39,2.8-4.2t2-3.27q.88-1.45,1.66-2.8t1.71-2.8q2.49-4.25,4.41-7.32t3.63-5.55q1.71-2.49,3.43-4.82t3.89-5.24a74.86,74.86,0,0,1,5.39-6.49,61.23,61.23,0,0,1,6.74-6.28,35.71,35.71,0,0,1,7.84-4.77,23.36,23.36,0,0,1,19.46.52,7.59,7.59,0,0,1,4.15,7,5.45,5.45,0,0,1-1.09,3.27,3.66,3.66,0,0,1-3.16,1.5,3.72,3.72,0,0,1-3.84-3.84,4.94,4.94,0,0,1,.21-1.56,7.38,7.38,0,0,1,.52-1.19,10.06,10.06,0,0,0,.52-1.09,3.36,3.36,0,0,0,.21-1.25q0-1.87-2.49-2.91A15,15,0,0,0,370.75,128.06Z" transform="translate(-5.85 0.73)"/><path class="cls-1" d="M388.29,199.24a10.47,10.47,0,0,1-8.35-3.68q-3.17-3.68-3.16-10a12.76,12.76,0,0,1,.21-2.49,9.1,9.1,0,0,0,.21-1.35.31.31,0,0,0-.1-.21H377a9.64,9.64,0,0,0-1.09,1c-.38.41-.78.87-1.19,1.35s-.9,1-1,1.14a.59.59,0,0,1-.41.21c-.28,0-.42-.21-.42-.62,0-.14.17-.4.52-.78s1.21-1.36,2.59-3l2.44-2.7,2.44-2.7A50,50,0,0,1,392,166.61a22.74,22.74,0,0,1,11.21-3.37A6.32,6.32,0,0,1,407.9,165a6.05,6.05,0,0,1,1.76,4.46,7.87,7.87,0,0,1-1.45,4.51,16.79,16.79,0,0,1-3.79,3.89,33.56,33.56,0,0,1-5.24,3.22,57.34,57.34,0,0,1-5.86,2.54q-3,1.09-5.71,1.82T383,186.58a19.21,19.21,0,0,0-.52,4.26,7,7,0,0,0,.42,2.33,6,6,0,0,0,1.35,2.18,7.21,7.21,0,0,0,2.33,1.61,8,8,0,0,0,3.27.62,15.32,15.32,0,0,0,7.68-2.13,38.49,38.49,0,0,0,6.64-4.72,56,56,0,0,0,4.77-4.72,12,12,0,0,1,2.08-2.13.46.46,0,0,1,.52.52,7.92,7.92,0,0,1-.88,1.25q-.88,1.14-2.44,2.8a47.72,47.72,0,0,1-3.73,3.53,38.83,38.83,0,0,1-4.77,3.48,31.3,31.3,0,0,1-5.5,2.7A16.74,16.74,0,0,1,388.29,199.24Zm14.84-34.45a10.6,10.6,0,0,0-5.76,2.13,33.63,33.63,0,0,0-6,5.24,47,47,0,0,0-5.08,6.64,21,21,0,0,0-2.85,6.23,30.87,30.87,0,0,0,7.11-1.92,33.29,33.29,0,0,0,7.26-3.89,25,25,0,0,0,5.66-5.45,10.82,10.82,0,0,0,2.28-6.59Q405.72,164.79,403.13,164.79ZM393,148.92a4.15,4.15,0,0,1,2.75.83,3,3,0,0,1,1,2.39,6.39,6.39,0,0,1-1.19,4.15,4.75,4.75,0,0,1-3.89,1.45,3.36,3.36,0,0,1-2.39-.78,3.85,3.85,0,0,1-.83-2.85,6.32,6.32,0,0,1,1-3.68A4,4,0,0,1,393,148.92Zm18.68,0a4.15,4.15,0,0,1,2.75.83,3,3,0,0,1,1,2.39,6.39,6.39,0,0,1-1.19,4.15,4.76,4.76,0,0,1-3.89,1.45,3.35,3.35,0,0,1-2.39-.78,3.85,3.85,0,0,1-.83-2.85,6.33,6.33,0,0,1,1-3.68A4,4,0,0,1,411.63,148.92Z" transform="translate(-5.85 0.73)"/><path class="cls-1" d="M441.72,199.35a55.33,55.33,0,0,0,8.77-5.24,72.37,72.37,0,0,0,6.12-5,50.52,50.52,0,0,0,3.68-3.74q1.24-1.45,1.45-1.45a.46.46,0,0,1,.52.52,9.4,9.4,0,0,1-1.35,1.92,42,42,0,0,1-4,4.25,67,67,0,0,1-6.9,5.55,66.09,66.09,0,0,1-9.8,5.71q-2,2.9-4.67,6.28t-5.86,6.69a85.36,85.36,0,0,1-6.8,6.38,56.25,56.25,0,0,1-7.47,5.34,44.21,44.21,0,0,1-7.78,3.68,22.85,22.85,0,0,1-7.68,1.4,15.16,15.16,0,0,1-3.79-.47,10.41,10.41,0,0,1-3.27-1.45,7.22,7.22,0,0,1-3.22-6.28,7.06,7.06,0,0,1,1.19-3.84A14.81,14.81,0,0,1,394,216.1a30.1,30.1,0,0,1,4.51-3,42.52,42.52,0,0,1,5.24-2.44q5.08-2,9-3.22t7.42-2.28q3.52-1,7-2t7.47-2.18q.93-1.66,1.66-3.16l1.66-3.43,2.13-4.36q1.19-2.44,3.06-6l-.31-.31q-1.35,2-3.58,4.62a56.23,56.23,0,0,1-4.88,5.08,30.51,30.51,0,0,1-5.55,4.1,11.31,11.31,0,0,1-5.6,1.66q-4.56,0-6.28-3.11a17,17,0,0,1-1.71-8.2,12.89,12.89,0,0,1,.47-3.84,9.43,9.43,0,0,0,.47-2.91c0-.21-.17-.31-.52-.31a1.27,1.27,0,0,0-.93.31,9.64,9.64,0,0,0-1.19,1.19l-1.3,1.5c-.56.62-.9,1-1,1.14a.59.59,0,0,1-.41.21c-.28,0-.42-.21-.42-.62a5,5,0,0,1,.78-1c.52-.59,1.16-1.33,1.92-2.23s1.57-1.83,2.44-2.8l2.33-2.59a41.64,41.64,0,0,1,5.24-4.57,54.22,54.22,0,0,1,6.38-4.1,41.32,41.32,0,0,1,6.74-3,19.88,19.88,0,0,1,6.23-1.14,7.68,7.68,0,0,1,4.93,1.45q1.82,1.45,1.82,4.77c0,.83,0,1.63-.1,2.39a9.33,9.33,0,0,1-.42,2.08l.31.31q1.24-2.08,2.7-4.62t2.7-5.24l8.51-.62-21.27,35.38Zm-47.94,25.21q0,3.32,1.56,4.56a6.79,6.79,0,0,0,4.36,1.25,21.54,21.54,0,0,0,8.51-1.92,38.06,38.06,0,0,0,8.87-5.5,64.86,64.86,0,0,0,8.61-8.56,79.56,79.56,0,0,0,7.83-11.21q-8.82,2.39-16.19,4.72t-13.59,4.93a16.5,16.5,0,0,0-3.27,1.82,21.83,21.83,0,0,0-3.22,2.75,15.53,15.53,0,0,0-2.49,3.37A7.84,7.84,0,0,0,393.79,224.56Zm49.91-59.77a13.78,13.78,0,0,0-8.15,3.11,39.1,39.1,0,0,0-7.68,7.63,49.64,49.64,0,0,0-5.76,9.44,21.12,21.12,0,0,0-2.28,8.66,4.81,4.81,0,0,0,.83,2.91,2.87,2.87,0,0,0,2.49,1.14,10.28,10.28,0,0,0,5.14-1.61,31.78,31.78,0,0,0,5.45-4.1,48.49,48.49,0,0,0,5.19-5.66,67.6,67.6,0,0,0,4.41-6.28,40.44,40.44,0,0,0,3.06-5.91,12.81,12.81,0,0,0,1.14-4.56,7.14,7.14,0,0,0-.73-3.48Q446.08,164.79,443.7,164.79Z" transform="translate(-5.85 0.73)"/><path class="cls-1" d="M493.91,186.89q-.31.31-.62.68t-.73.78q-1.45,1.76-3.27,3.63a33.72,33.72,0,0,1-4,3.53,20.91,20.91,0,0,1-4.88,2.7,15.63,15.63,0,0,1-5.76,1,6.79,6.79,0,0,1-6-3.11,15,15,0,0,1-2.08-8.41,30.24,30.24,0,0,1,.26-4.88l.36-1.87c.14-.55,0-.83-.31-.83a1.49,1.49,0,0,0-1,.52l-.83.83q-.31.31-.88,1l-1.19,1.4c-.56.62-.9,1-1,1.14a.59.59,0,0,1-.41.21c-.28,0-.42-.21-.42-.62,0-.14.17-.4.52-.78s1.21-1.36,2.59-3l2.44-2.7,2.44-2.7a39.84,39.84,0,0,1,11.47-9.08,26.21,26.21,0,0,1,12-3.16,7,7,0,0,1,5.76,2.49,9.88,9.88,0,0,1,2,6.43,17.67,17.67,0,0,1-1.61,7,35.07,35.07,0,0,1-3.79,6.74,6.57,6.57,0,0,0,1,1.61,1.76,1.76,0,0,0,1.4.68,3.6,3.6,0,0,0,1.92-.62,12.12,12.12,0,0,0,1.82-1.4q.83-.78,1.4-1.4a3.87,3.87,0,0,1,.78-.73.55.55,0,0,1,.47,0c.17.07.19.28.05.62a13,13,0,0,1-.83,1,20.7,20.7,0,0,1-1.5,1.56,10.46,10.46,0,0,1-2,1.45,4.44,4.44,0,0,1-2.23.62Q495.05,189.28,493.91,186.89Zm-1.14-2.08a17.78,17.78,0,0,1-1-6.85,23,23,0,0,1,1-6.8,16.36,16.36,0,0,1,2.8-5.55,4.2,4.2,0,0,0-2.7-.83,12,12,0,0,0-7.16,2.85,34.49,34.49,0,0,0-6.85,7.11,43.41,43.41,0,0,0-5.14,9.18,23.86,23.86,0,0,0-2,9q0,2.7,1,3.73a3.23,3.23,0,0,0,2.44,1,12.54,12.54,0,0,0,4.72-1,20,20,0,0,0,4.72-2.75,32,32,0,0,0,4.36-4.1A42.92,42.92,0,0,0,492.77,184.82Zm.93-1.56a34.19,34.19,0,0,0,2.7-6.33,21.29,21.29,0,0,0,1-6.33,7.78,7.78,0,0,0-.83-3.53,16,16,0,0,0-2.54,5,18.8,18.8,0,0,0-1,5.76,25.91,25.91,0,0,0,.16,2.65A19.61,19.61,0,0,0,493.71,183.26Z" transform="translate(-5.85 0.73)"/><path class="cls-1" d="M524.52,187.41q1.14-1.45,3.11-3.79t4.41-5q2.44-2.7,5.14-5.45a63.08,63.08,0,0,1,5.39-4.93,36.27,36.27,0,0,1,5.24-3.58,9.73,9.73,0,0,1,4.62-1.4,3.86,3.86,0,0,1,3.63,2,9.45,9.45,0,0,1,1.14,4.72,12.36,12.36,0,0,1-2.18,6.48q-2.18,3.48-4.83,7t-4.82,6.69a10.58,10.58,0,0,0-2.18,5.71,2.16,2.16,0,0,0,.62,1.5,1.78,1.78,0,0,0,1.87.36,18.3,18.3,0,0,0,5.76-3.06,55.42,55.42,0,0,0,5.4-4.62q2.44-2.39,4-4.25a9.15,9.15,0,0,1,1.82-1.87.46.46,0,0,1,.52.52,12,12,0,0,1-2.08,2.65q-2.08,2.34-4.93,5.08a49.48,49.48,0,0,1-6,4.93q-3.11,2.18-5.29,2.18a4.44,4.44,0,0,1-4.25-2.28,12.54,12.54,0,0,1-1.25-6,14.08,14.08,0,0,1,2.18-7.42,59.73,59.73,0,0,1,4.72-6.69l4.72-5.76q2.18-2.65,2.18-4.62a1.47,1.47,0,0,0-1.66-1.66q-1.87,0-6.12,3a73.63,73.63,0,0,0-10.06,9.08,169.43,169.43,0,0,0-12.71,15.25,211.73,211.73,0,0,0-14.06,21.64L499,231.1l-8.72.52,30.82-50.74q3.43-5.6,5.66-9.39t2.23-4.93c0-.76-.21-1.24-.62-1.45a3.21,3.21,0,0,0-1.45-.31q-3,0-6.38,2.8a80.9,80.9,0,0,0-7,6.64l-8.92,9.65q-1.24,1.35-1.45,1.35c-.28,0-.41-.21-.41-.62a.64.64,0,0,1,.15-.31,3.19,3.19,0,0,1,.26-.31l11-12.25a53,53,0,0,1,7.06-6.22,11.2,11.2,0,0,1,6.54-2.28,6.56,6.56,0,0,1,4,1.24,4.26,4.26,0,0,1,1.66,3.63,9.93,9.93,0,0,1-.93,3.58q-.93,2.23-2.34,4.88T527.12,182q-1.66,2.8-3,5.19Z" transform="translate(-5.85 0.73)"/><path class="cls-1" d="M594.77,186.89q-.31.31-.62.68t-.73.78q-1.45,1.76-3.27,3.63a33.72,33.72,0,0,1-4,3.53,20.91,20.91,0,0,1-4.88,2.7,15.63,15.63,0,0,1-5.76,1,6.79,6.79,0,0,1-6-3.11,15,15,0,0,1-2.08-8.41,30.24,30.24,0,0,1,.26-4.88L568,181c.14-.55,0-.83-.31-.83a1.49,1.49,0,0,0-1,.52l-.83.83q-.31.31-.88,1l-1.19,1.4c-.56.62-.9,1-1,1.14a.59.59,0,0,1-.41.21c-.28,0-.42-.21-.42-.62,0-.14.17-.4.52-.78s1.21-1.36,2.59-3l2.44-2.7,2.44-2.7a39.84,39.84,0,0,1,11.47-9.08,26.21,26.21,0,0,1,12-3.16,7,7,0,0,1,5.76,2.49,9.88,9.88,0,0,1,2,6.43,17.67,17.67,0,0,1-1.61,7,35.07,35.07,0,0,1-3.79,6.74,6.57,6.57,0,0,0,1,1.61,1.76,1.76,0,0,0,1.4.68,3.6,3.6,0,0,0,1.92-.62,12.12,12.12,0,0,0,1.82-1.4q.83-.78,1.4-1.4A3.87,3.87,0,0,1,604,184a.55.55,0,0,1,.47,0c.17.07.19.28.05.62a13,13,0,0,1-.83,1,20.7,20.7,0,0,1-1.5,1.56,10.46,10.46,0,0,1-2,1.45,4.44,4.44,0,0,1-2.23.62Q595.91,189.28,594.77,186.89Zm-1.14-2.08a17.78,17.78,0,0,1-1-6.85,23,23,0,0,1,1-6.8,16.36,16.36,0,0,1,2.8-5.55,4.2,4.2,0,0,0-2.7-.83,12,12,0,0,0-7.16,2.85,34.49,34.49,0,0,0-6.85,7.11,43.41,43.41,0,0,0-5.14,9.18,23.86,23.86,0,0,0-2,9q0,2.7,1,3.73a3.23,3.23,0,0,0,2.44,1,12.54,12.54,0,0,0,4.72-1,20,20,0,0,0,4.72-2.75,32,32,0,0,0,4.36-4.1A42.92,42.92,0,0,0,593.63,184.82Zm.93-1.56a34.19,34.19,0,0,0,2.7-6.33,21.29,21.29,0,0,0,1-6.33,7.78,7.78,0,0,0-.83-3.53,16,16,0,0,0-2.54,5,18.8,18.8,0,0,0-1,5.76,25.91,25.91,0,0,0,.16,2.65A19.61,19.61,0,0,0,594.56,183.26Z" transform="translate(-5.85 0.73)"/><path class="cls-1" d="M637.2,187.31a13.16,13.16,0,0,1-1.19,1.4l-1.09,1.09q-1.14,1.14-3.06,2.75a33.36,33.36,0,0,1-4.36,3.06,37.37,37.37,0,0,1-5.14,2.54,14.34,14.34,0,0,1-5.4,1.09q-4,.1-5.81-2.49a11.35,11.35,0,0,1-1.76-6.54,16.3,16.3,0,0,1,1.92-7.26,60.2,60.2,0,0,1,4.2-7.16q2.28-3.32,4.2-5.66t1.92-3a.18.18,0,0,0-.21-.21q-.31,0-2.08,1.87t-5.08,5.5l-8.82,9.54q-1.24,1.35-1.45,1.35c-.28,0-.41-.21-.41-.62a.64.64,0,0,1,.15-.31A3.19,3.19,0,0,1,604,184l16-17.54q2.59-2.9,3.89-4.25t2-2.13q.67-.78,1.19-1.5l1.66-2.28a34.53,34.53,0,0,0,2.6-4.36q1.45-2.8,3.32-6.07t4.15-6.64a38.19,38.19,0,0,1,5.14-6.12,27.44,27.44,0,0,1,6.17-4.51,15.24,15.24,0,0,1,7.26-1.76q5.19,0,5.19,5.81a14.43,14.43,0,0,1-1.3,5.55,26.94,26.94,0,0,1-5,7.11,78.26,78.26,0,0,1-10.38,9.13,180.23,180.23,0,0,1-17.48,11.41q-4,6.85-6.79,11.78t-4.51,8.3a55,55,0,0,0-2.54,5.4,9.47,9.47,0,0,0-.78,3.06,4.51,4.51,0,0,0,.57,2.38q.57.93,2.44.93a15.14,15.14,0,0,0,4.88-.88,24.21,24.21,0,0,0,5.14-2.49,40.84,40.84,0,0,0,5-3.79,41.47,41.47,0,0,0,4.56-4.67q-.52-1.45-1-3.32a17.25,17.25,0,0,1-.52-4.57,19.7,19.7,0,0,1,.73-5.24,21.53,21.53,0,0,1,1.87-4.72,14.23,14.23,0,0,1,2.54-3.42,4.14,4.14,0,0,1,2.85-1.35,2.47,2.47,0,0,1,2.39,1.5,7.68,7.68,0,0,1,.73,3.37,18.32,18.32,0,0,1-.73,5,29.85,29.85,0,0,1-1.87,4.88,40.33,40.33,0,0,1-2.54,4.46q-1.4,2.13-2.75,3.79a3.19,3.19,0,0,0,2.91,2,3.1,3.1,0,0,0,1.66-.52,12.7,12.7,0,0,0,1.61-1.19,17.73,17.73,0,0,0,1.4-1.35c.41-.45.76-.81,1-1.09a.71.71,0,0,1,.68-.1c.31.07.29.35-.05.83-.14.14-.41.47-.83,1a12.67,12.67,0,0,1-1.5,1.55,11.84,11.84,0,0,1-2,1.4,4.13,4.13,0,0,1-5.76-1.45Zm-7.26-24.49q1-.62,3.68-2.13t6-3.79q3.37-2.28,7-5.19a59.19,59.19,0,0,0,6.59-6.23,35.75,35.75,0,0,0,5-7,15.29,15.29,0,0,0,2-7.37,2.59,2.59,0,0,0-1-2.28,4.43,4.43,0,0,0-2.59-.73,11.16,11.16,0,0,0-6.74,2.49,33.39,33.39,0,0,0-6.64,7,85.07,85.07,0,0,0-6.64,10.84q-3.32,6.33-6.74,14Zm7.37,21.89a46.38,46.38,0,0,0,5-8,17.71,17.71,0,0,0,2-7.63,19.2,19.2,0,0,0-.21-2.54q-.21-1.5-1.25-1.5a3.37,3.37,0,0,0-2.44,1.3,13.33,13.33,0,0,0-2.13,3.22,21.53,21.53,0,0,0-1.5,4.2,17.25,17.25,0,0,0-.57,4.15,26.08,26.08,0,0,0,.26,3.48A12.92,12.92,0,0,0,637.31,184.71Z" transform="translate(-5.85 0.73)"/><path class="cls-1" d="M680.06,199.24a5.25,5.25,0,0,1-4.15-1.76q-1.56-1.76-1.56-7.16a7.12,7.12,0,0,1,.1-1.3,6.31,6.31,0,0,0,.1-1.09q-1.45,1.45-3.48,3.43t-4.2,3.73a29.24,29.24,0,0,1-4.36,3,8.5,8.5,0,0,1-4,1.19,7.43,7.43,0,0,1-4.1-1,7.14,7.14,0,0,1-2.49-2.7,12.53,12.53,0,0,1-1.25-3.79,25.51,25.51,0,0,1-.36-4.31,30.61,30.61,0,0,1,.62-6l-.21-.21a9.64,9.64,0,0,0-1.19,1.19l-1.3,1.5c-.56.62-.9,1-1,1.14a.59.59,0,0,1-.41.21c-.28,0-.42-.21-.42-.62a10.59,10.59,0,0,1,1.66-2q1.66-1.82,3.74-4.2a47.62,47.62,0,0,1,5.81-6,45,45,0,0,1,6.64-4.82,34.27,34.27,0,0,1,7-3.16,23,23,0,0,1,7-1.14,4.82,4.82,0,0,1,4.2,1.82,7.58,7.58,0,0,1,1.3,4.51,15.4,15.4,0,0,1-.31,3.53l.21.21q1.76-2.8,2.7-4.57a29.52,29.52,0,0,1,1.61-2.75,5.73,5.73,0,0,1,1.25-1.4,3.27,3.27,0,0,1,1.61-.52l6.23-.21q-.93,1.14-2.65,3.58t-3.79,5.6q-2.08,3.17-4.26,6.69t-3.94,6.74q-1.76,3.22-2.91,5.71a10.17,10.17,0,0,0-1.14,3.63,2.17,2.17,0,0,0,.62,1.5,1.78,1.78,0,0,0,1.87.36,18.28,18.28,0,0,0,5.76-3.06,55.18,55.18,0,0,0,5.4-4.62q2.44-2.39,4-4.25a9.15,9.15,0,0,1,1.82-1.87.46.46,0,0,1,.52.52,12,12,0,0,1-2.08,2.65q-2.08,2.34-4.93,5.08a49.48,49.48,0,0,1-6,4.93Q682.24,199.24,680.06,199.24Zm-24.59-5.71a5.53,5.53,0,0,0,.73,3,2.5,2.5,0,0,0,2.28,1.14,9,9,0,0,0,4.36-1.45,31.15,31.15,0,0,0,5.08-3.79,63.51,63.51,0,0,0,5.19-5.29,47.06,47.06,0,0,0,4.57-6.12,42.65,42.65,0,0,0,3.22-6.17,14.33,14.33,0,0,0,1.24-5.4,5.71,5.71,0,0,0-.93-3.32,3.4,3.4,0,0,0-3-1.35,11,11,0,0,0-5.4,1.5,25.39,25.39,0,0,0-5.19,3.89,40.69,40.69,0,0,0-4.72,5.45,48,48,0,0,0-3.89,6.28,37.72,37.72,0,0,0-2.59,6.28A18.68,18.68,0,0,0,655.47,193.53Z" transform="translate(-5.85 0.73)"/></g><g id="textCircle" transform="rotate(720 341.21 198.15)"><text class="cls-2" dy="-20" dx="63"><textPath href="#logoCircleTop">Санкт-Петербург Сертолово</textPath></text><text class="cls-2" dy="40" dx="6"><textPath href="#logoCircleBottom">makeup-artist brow-stylist hair-stylist</textPath></text></g></svg>