<svg version="1.1" xmlns="http://www.w3.org/2000/svg" xmlns:xlink="http://www.w3.org/1999/xlink" x="0px" y="0px" width="99.45px"
	 height="64.19px" viewBox="0 0 99.45 64.19" style="overflow:visible;enable-background:new 0 0 99.45 64.19;"
	 xml:space="preserve">
<style type="text/css">
	.st0{fill:url(#SVGID_1_);stroke:#FFFFFF;stroke-miterlimit:10;}
	.st1{fill:url(#SVGID_2_);stroke:#FFFFFF;stroke-miterlimit:10;}
</style>
<defs>
</defs>
<radialGradient id="SVGID_1_" cx="49.7494" cy="32.0889" r="40.805" gradientUnits="userSpaceOnUse">
	<stop  offset="0" style="stop-color:#FF00BD"/>
	<stop  offset="1" style="stop-color:#93006D"/>
</radialGradient>
<polygon class="st0" points="12.31,33 2.79,26.85 16.38,23.39 11.88,15.08 25.64,15.08 26.77,5.73 38.54,9.28 44.86,0.71 
	53.51,7.03 63.9,0.71 67.8,8.59 80.44,4.87 79.31,13.35 92.47,13.35 86.15,21.66 98.18,24.86 87.62,31.18 95.84,37.07 83.29,40.87 
	87.01,48.58 74.12,49.18 72.73,57.84 60.96,54.72 54.73,62.95 46.16,56.97 35.68,63.47 31.96,55.33 18.8,59.23 20.54,50.14 
	6.86,50.66 13.61,42.43 1.32,39.32 "/>
<text style="font-size: 20px;font-family: sans-serif;fill: #fff;" x="20" y="38" transform="translate(-4 8) rotate(-8)">Акция!</text>
</svg>
