<svg xmlns="http://www.w3.org/2000/svg" viewBox="0 0 100 100" id="background" width="100" height="100" preserveAspectRatio="none"><defs><pattern xmlns="http://www.w3.org/2000/svg" id="pattern-hex" x="0" y="0" viewBox="56 -254 112 190" preserveAspectRatio="xMinYMin" patternUnits="objectBoundingBox" width="0.05" height="0.05" style="fill: none;stroke: white;">
        
      <!-- Group the hexagon shapes -->
      <!-- Each path could have a class for more styling/animating options -->
      <!-- We're going to control the fill and stroke in the CSS for flexibility -->
      <g id="hexagon">
            <path d="M168-127.1c0.5,0,1,0.1,1.3,0.3l53.4,30.5c0.7,0.4,1.3,1.4,1.3,2.2v61c0,0.8-0.6,1.8-1.3,2.2L169.3-0.3             c-0.7,0.4-1.9,0.4-2.6,0l-53.4-30.5c-0.7-0.4-1.3-1.4-1.3-2.2v-61c0-0.8,0.6-1.8,1.3-2.2l53.4-30.5C167-127,167.5-127.1,168-127.1             L168-127.1z"></path>
          <path d="M112-222.5c0.5,0,1,0.1,1.3,0.3l53.4,30.5c0.7,0.4,1.3,1.4,1.3,2.2v61c0,0.8-0.6,1.8-1.3,2.2l-53.4,30.5             c-0.7,0.4-1.9,0.4-2.6,0l-53.4-30.5c-0.7-0.4-1.3-1.4-1.3-2.2v-61c0-0.8,0.6-1.8,1.3-2.2l53.4-30.5             C111-222.4,111.5-222.5,112-222.5L112-222.5z"></path>
          <path d="M168-317.8c0.5,0,1,0.1,1.3,0.3l53.4,30.5c0.7,0.4,1.3,1.4,1.3,2.2v61c0,0.8-0.6,1.8-1.3,2.2L169.3-191             c-0.7,0.4-1.9,0.4-2.6,0l-53.4-30.5c-0.7-0.4-1.3-1.4-1.3-2.2v-61c0-0.8,0.6-1.8,1.3-2.2l53.4-30.5             C167-317.7,167.5-317.8,168-317.8L168-317.8z"></path>
      </g>
  
  </pattern><linearGradient x1="100%" x2="0" y2="100%" y1="0" id="backgroundGradient"><stop stop-color="#aeaeae" stop-opacity="0" offset="0"></stop><stop stop-color="#fff" stop-opacity="0" offset="0.5"></stop><stop offset="1" stop-color="#aeaeae" stop-opacity="0"></stop></linearGradient>      </defs><rect fill="url(#backgroundGradient)" height="100" width="100"></rect><rect fill="url(#backgroundGradient)" style="fill: url(#pattern-hex);" height="100" width="100"></rect></svg>