<svg version="1.1" xmlns="http://www.w3.org/2000/svg" xmlns:xlink="http://www.w3.org/1999/xlink" x="0px" y="0px"
	 width="16px" height="20px" viewBox="0 0 164.61 234.88"
	 style="overflow:visible;enable-background:new 0 0 164.61 234.88;" xml:space="preserve">
<style type="text/css">
	.st0{fill:url(#SVGID_1_);stroke:#000000;stroke-miterlimit:10;}
	.st1{fill:url(#SVGID_2_);stroke:#000000;stroke-miterlimit:10;}
</style>
<defs>
</defs>
<linearGradient id="SVGID_1_" gradientUnits="userSpaceOnUse" x1="-55.2847" y1="299.4869" x2="145.1191" y2="22.6239">
	<stop  offset="0" style="stop-color:#004fa3"/>
	<stop  offset="1" style="stop-color:#FFFFFF"/>
</linearGradient>
<path class="st0" d="M163.96,208.93c0,0,0,8.47-3.35,8.47c-3.35,0-6.71,0.53-9.35,1.59c-2.65,1.06-1.24,5.82-1.24,5.82
	s-2.29,1.24-6.71,1.24c-4.41,0-90.18-22.59-90.18-22.59s-0.35-54.94-0.35-56.35s1.65-2.12,5.41-4.71s2.59-8.71,2.59-8.71
	s0.58-99.06,0.17-102.59c-0.41-3.53-2.76-3.29-2.76-3.29L3.2,1.6c1.03-0.74,2.45-1.2,4.4-1.08c8,0.47,138.35,16.94,138.35,16.94
	s4.76,1.06,4.94,5.65c0.18,4.59-0.35,109.94-0.18,112.94s1.94,3,1.94,3s10.94,1.59,11.29,6.88
	C164.31,151.22,163.96,208.93,163.96,208.93z M58.19,142.4c3.76-2.59,2.59-8.71,2.59-8.71s0.58-99.06,0.17-102.59
	c-0.41-3.53-2.76-3.29-2.76-3.29L3.2,1.6C0.01,3.89,0.54,8.99,0.54,8.99S0.48,185.93,0.51,191.58c0.03,5.65,40.03,38.12,44.27,41.41
	c4.24,3.29,7.53,0,7.53-2.35l0.82-27.18c0,0-0.35-54.94-0.35-56.35S54.43,144.99,58.19,142.4z"/>
</svg>
