<svg version="1.1" xmlns="http://www.w3.org/2000/svg" xmlns:xlink="http://www.w3.org/1999/xlink" xmlns:a="http://ns.adobe.com/AdobeSVGViewerExtensions/3.0/" x="0px" y="0px" width="33.6px" height="23px" viewBox="0 0 33.6 23" style="width: 150px;height: 150px;" xml:space="preserve">
<style type="text/css">
	.st0{fill:url(#SVGID_1_);stroke:#000000;stroke-width:0.25;stroke-miterlimit:10;}
	.st1{fill:url(#SVGID_2_);stroke:#000000;stroke-width:0.25;stroke-miterlimit:10;}
</style>
<defs>    <linearGradient id="SVGID_1_" gradientUnits="userSpaceOnUse" x1="0.2048" y1="11.5115" x2="33.4631" y2="11.5115">
	<stop offset="0" style="stop-color:#5C5C5C"/>
	<stop offset="0.5027" style="stop-color:#E8E8E8"/>
	<stop offset="1" style="stop-color:#5C5C5C"/>
</linearGradient><pattern xmlns="http://www.w3.org/2000/svg" id="star" viewBox="0,0,10,10" style="" x="0" y="0" height="50%" width="50%"><line class="st0" x1="7.1" y1="0.1" x2="0.1" y2="11.1"/></pattern></defs>

<path class="st0" d="M11.9,8.1c-0.7,0.3-1.3,0.4-1.9,0.4c-1,0-1.9-0.3-2.7-1c-1-0.8-1.5-1.9-1.5-3.2c0-1.3,0.5-2.4,1.5-3.2  c0.8-0.6,1.7-1,2.7-1c0.6,0,1.2,0.1,1.9,0.4V3c-0.2-0.2-0.4-0.4-0.6-0.5c-0.4-0.2-0.8-0.3-1.2-0.3c-0.5,0-1,0.2-1.4,0.5  C8.1,3,7.9,3.6,7.9,4.3C7.9,5,8.1,5.6,8.6,6C9,6.3,9.5,6.5,10.1,6.5c0.4,0,0.8-0.1,1.2-0.3c0.2-0.1,0.4-0.3,0.6-0.5V8.1z M21.2,8.3  h-2.1l-3.8-4.9v4.9h-2.1v-8h2.1l3.8,4.9V0.3h2.1V8.3z M28.6,8.1c-0.7,0.3-1.3,0.4-1.9,0.4c-1,0-1.9-0.3-2.7-1  c-1-0.8-1.5-1.9-1.5-3.2C22.5,3,23,1.9,24,1.1c0.8-0.6,1.7-1,2.7-1c0.6,0,1.2,0.1,1.9,0.4V3c-0.2-0.2-0.4-0.4-0.6-0.5  c-0.4-0.2-0.8-0.3-1.2-0.3c-0.5,0-1,0.2-1.4,0.5c-0.5,0.4-0.8,1-0.8,1.7c0,0.7,0.3,1.3,0.8,1.7c0.4,0.3,0.9,0.5,1.4,0.5  c0.4,0,0.8-0.1,1.2-0.3c0.2-0.1,0.4-0.3,0.6-0.5V8.1z M11.1,17.3l-2.8,5.4H7l-1.4-3l-1.3,3H3l-2.8-5.4h2.1l1.3,2.9L5,17.3h1.2  l1.4,2.9l1.4-2.9H11.1z M18.1,20c0,0.8-0.2,1.4-0.7,1.9c-0.6,0.7-1.4,1-2.5,1c-1.1,0-1.9-0.3-2.5-1c-0.5-0.5-0.7-1.2-0.7-2  c0-0.7,0.3-1.3,0.8-1.9c0.6-0.7,1.5-1,2.6-1c1,0,1.8,0.3,2.5,1C17.8,18.6,18.1,19.2,18.1,20z M16.1,20c0-0.4-0.1-0.7-0.4-0.9  c-0.2-0.2-0.5-0.4-0.9-0.4c-0.4,0-0.7,0.1-1,0.4c-0.2,0.2-0.3,0.5-0.3,0.8c0,0.3,0.1,0.6,0.3,0.8c0.2,0.3,0.6,0.4,1,0.4  c0.4,0,0.7-0.1,0.9-0.4C15.9,20.6,16.1,20.3,16.1,20z M23.2,19c-0.3-0.1-0.5-0.2-0.8-0.2c-0.6,0-1,0.3-1.2,0.8  c-0.1,0.2-0.1,0.4-0.1,0.8v2.3h-1.9v-5.4h1.9v0.9c0.2-0.3,0.4-0.5,0.7-0.7c0.3-0.2,0.7-0.3,1.1-0.3c0.1,0,0.2,0,0.4,0V19z M26,22.7  h-1.9v-8.8H26V22.7z M33.5,22.7h-1.9v-0.6c-0.2,0.2-0.4,0.4-0.6,0.5c-0.3,0.2-0.7,0.3-1.1,0.3c-0.7,0-1.3-0.2-1.8-0.7  c-0.6-0.6-0.9-1.3-0.9-2.2c0-0.9,0.3-1.7,1-2.2c0.5-0.4,1.1-0.7,1.8-0.7c0.4,0,0.7,0.1,1.1,0.2c0.2,0.1,0.4,0.2,0.6,0.5v-3.9h1.9  V22.7z M31.6,20c0-0.3-0.1-0.6-0.4-0.9c-0.2-0.2-0.5-0.4-0.9-0.4c-0.4,0-0.7,0.1-0.9,0.4c-0.2,0.2-0.3,0.5-0.3,0.8s0.1,0.6,0.3,0.8  c0.2,0.3,0.6,0.4,0.9,0.4c0.3,0,0.6-0.1,0.9-0.4C31.5,20.6,31.6,20.3,31.6,20z" style="fill: url(#star);"/>
</svg>