<svg version="1.1" xmlns="http://www.w3.org/2000/svg" xmlns:xlink="http://www.w3.org/1999/xlink" x="0px" y="0px" width="43.7px" height="27px" viewBox="0 0 43.7 27" style="width: 100%;height: 100%;" xml:space="preserve">

<defs>
</defs>
<linearGradient id="SVGID_1_" gradientUnits="userSpaceOnUse" x1="6.4123" y1="30.043" x2="39.3093" y2="-2.854">
	<stop offset="0" style="stop-color:#404040"></stop>
	<stop offset="0.5081" style="stop-color:#E0E0E0"></stop>
	<stop offset="1" style="stop-color:#404040"></stop>
</linearGradient>
<path d="M11.5,16C10.2,16.5,9,16.8,8,16.8c-1.9,0-3.6-0.6-5.1-1.9C1,13.2,0,11,0,8.4c0-2.7,1-4.8,2.9-6.5
	C4.4,0.6,6.1,0,8,0c1,0,2.2,0.3,3.5,0.8v5c-0.4-0.5-0.7-0.8-1.1-1.1C9.7,4.3,8.9,4,8.1,4c-1,0-1.9,0.3-2.6,1C4.5,5.8,4.1,7,4.1,8.4
	c0,1.4,0.5,2.5,1.4,3.4c0.7,0.7,1.6,1,2.6,1c0.8,0,1.6-0.2,2.2-0.7c0.4-0.2,0.7-0.6,1.1-1.1V16z M29,16.3h-3.9l-7.2-9.8v9.8H14v-16
	h3.9l7.2,9.8V0.3H29V16.3z M43,16c-1.3,0.5-2.5,0.8-3.5,0.8c-1.9,0-3.6-0.6-5.1-1.9c-1.9-1.6-2.9-3.8-2.9-6.4c0-2.7,1-4.8,2.9-6.5
	C35.8,0.6,37.5,0,39.5,0c1,0,2.2,0.3,3.5,0.8v5c-0.4-0.5-0.7-0.8-1.1-1.1C41.1,4.3,40.4,4,39.6,4c-1,0-1.9,0.3-2.6,1
	c-0.9,0.8-1.4,2-1.4,3.4c0,1.4,0.5,2.5,1.4,3.4c0.7,0.7,1.6,1,2.6,1c0.8,0,1.6-0.2,2.2-0.7c0.4-0.2,0.7-0.6,1.1-1.1V16z M12.9,18.8
	l-2.6,8H8.2l-1.5-4.6l-1.5,4.6H3.1l-2.4-8h2.2l1.4,5.2L6,18.8h1.7l1.6,5.2l1.5-5.2H12.9z M22.2,22.8c0,1.1-0.4,2-1.1,2.9
	c-0.8,0.9-1.9,1.4-3.3,1.4c-1.4,0-2.5-0.5-3.3-1.4c-0.7-0.8-1.1-1.8-1.1-2.9c0-0.5,0.1-1,0.3-1.5s0.5-1,0.8-1.3
	c0.8-0.9,1.9-1.4,3.3-1.4s2.5,0.5,3.3,1.4C21.9,20.7,22.2,21.7,22.2,22.8z M20.1,22.8c0-0.6-0.2-1.1-0.5-1.5c-0.5-0.5-1-0.8-1.7-0.8
	c-0.5,0-0.9,0.1-1.3,0.4s-0.7,0.6-0.8,1.1c-0.1,0.3-0.1,0.5-0.1,0.8c0,0.5,0.2,1,0.5,1.5c0.4,0.5,1,0.8,1.7,0.8s1.3-0.3,1.7-0.8
	C19.9,23.8,20.1,23.3,20.1,22.8z M30.2,26.8h-2.6l-2-3.1v3.1h-2.1v-8h3.2c0.9,0,1.6,0.3,2.1,0.8c0.4,0.5,0.6,1,0.6,1.6
	c0,0.7-0.2,1.3-0.6,1.7c-0.3,0.3-0.6,0.5-1.1,0.6L30.2,26.8z M27.3,21.3c0-0.3-0.1-0.5-0.3-0.7c-0.2-0.2-0.5-0.3-0.9-0.3h-0.4v2H26
	c0.4,0,0.8-0.1,0.9-0.3C27.2,21.9,27.3,21.6,27.3,21.3z M35.7,26.8h-4.6v-8h2.1V25h2.5V26.8z M43.7,22.8c0,0.8-0.3,1.6-0.8,2.3
	s-1.1,1.2-1.9,1.5c-0.4,0.1-0.8,0.2-1.3,0.2h-3.1v-8h3.1c0.8,0,1.4,0.2,2.1,0.6c0.6,0.4,1.1,0.9,1.4,1.6
	C43.6,21.6,43.7,22.2,43.7,22.8z M41.6,22.8c0-0.6-0.2-1-0.5-1.4c-0.4-0.5-1-0.8-1.8-0.8h-0.5V25h0.5c0.8,0,1.4-0.3,1.8-0.8
	C41.4,23.8,41.6,23.3,41.6,22.8z" fill="url(#SVGID_1_)" style="stroke: #979797;stroke-width: 0.5px;"></path>
</svg>